HIERARCHY
ROOT Hips
{
	OFFSET 0.00000 0.00000 0.00000
	CHANNELS 6 Xposition Yposition Zposition Zrotation Yrotation Xrotation 
	JOINT LHipJoint
	{
		OFFSET 0 0 0
		CHANNELS 3 Zrotation Yrotation Xrotation
		JOINT LeftUpLeg
		{
			OFFSET 1.80322 -1.53100 0.99595
			CHANNELS 3 Zrotation Yrotation Xrotation
			JOINT LeftLeg
			{
				OFFSET 2.25177 -6.18669 0.00000
				CHANNELS 3 Zrotation Yrotation Xrotation
				JOINT LeftFoot
				{
					OFFSET 2.26601 -6.22582 0.00000
					CHANNELS 3 Zrotation Yrotation Xrotation
					JOINT LeftToeBase
					{
						OFFSET 0.23701 -0.65119 2.15848
						CHANNELS 3 Zrotation Yrotation Xrotation
						End Site
						{
							OFFSET 0.00000 -0.00000 1.12949
						}
					}
				}
			}
		}
	}
	JOINT RHipJoint
	{
		OFFSET 0 0 0
		CHANNELS 3 Zrotation Yrotation Xrotation
		JOINT RightUpLeg
		{
			OFFSET -1.93977 -1.53100 0.99595
			CHANNELS 3 Zrotation Yrotation Xrotation
			JOINT RightLeg
			{
				OFFSET -2.28036 -6.26523 0.00000
				CHANNELS 3 Zrotation Yrotation Xrotation
				JOINT RightFoot
				{
					OFFSET -2.25490 -6.19528 0.00000
					CHANNELS 3 Zrotation Yrotation Xrotation
					JOINT RightToeBase
					{
						OFFSET -0.28375 -0.77960 2.23137
						CHANNELS 3 Zrotation Yrotation Xrotation
						End Site
						{
							OFFSET -0.00000 -0.00000 1.17899
						}
					}
				}
			}
		}
	}
	JOINT LowerBack
	{
		OFFSET 0 0 0
		CHANNELS 3 Zrotation Yrotation Xrotation
		JOINT Spine
		{
			OFFSET -0.00088 2.12090 -0.02806
			CHANNELS 3 Zrotation Yrotation Xrotation
			JOINT Spine1
			{
				OFFSET -0.00286 2.09666 0.12974
				CHANNELS 3 Zrotation Yrotation Xrotation
				JOINT Neck
				{
					OFFSET 0 0 0
					CHANNELS 3 Zrotation Yrotation Xrotation
					JOINT Neck1
					{
						OFFSET 0.07328 1.83526 0.07290
						CHANNELS 3 Zrotation Yrotation Xrotation
						JOINT Head
						{
							OFFSET -0.06683 1.74974 -0.49542
							CHANNELS 3 Zrotation Yrotation Xrotation
							End Site
							{
								OFFSET -0.03398 1.85163 -0.17573
							}
						}
					}
				}
				JOINT LeftShoulder
				{
					OFFSET 0 0 0
					CHANNELS 3 Zrotation Yrotation Xrotation
					JOINT LeftArm
					{
						OFFSET 3.02113 1.18018 0.40602
						CHANNELS 3 Zrotation Yrotation Xrotation
						JOINT LeftForeArm
						{
							OFFSET 4.58538 -0.00000 -0.00000
							CHANNELS 3 Zrotation Yrotation Xrotation
							JOINT LeftHand
							{
								OFFSET 2.68935 -0.00000 -0.00000
								CHANNELS 3 Zrotation Yrotation Xrotation
								JOINT LeftFingerBase
								{
									OFFSET 0 0 0
									CHANNELS 3 Zrotation Yrotation Xrotation
									JOINT LeftHandIndex1
									{
										OFFSET 0.58506 -0.00000 -0.00000
										CHANNELS 3 Zrotation Yrotation Xrotation
										End Site
										{
											OFFSET 0.47169 -0.00000 -0.00000
										}
									}
								}
								JOINT LThumb
								{
									OFFSET 0 0 0
									CHANNELS 3 Zrotation Yrotation Xrotation
									End Site
									{
										OFFSET 0.47889 -0.00000 0.47889
									}
								}
							}
						}
					}
				}
				JOINT RightShoulder
				{
					OFFSET 0 0 0
					CHANNELS 3 Zrotation Yrotation Xrotation
					JOINT RightArm
					{
						OFFSET -2.95074 1.18843 0.31430
						CHANNELS 3 Zrotation Yrotation Xrotation
						JOINT RightForeArm
						{
							OFFSET -4.47450 -0.00000 -0.00000
							CHANNELS 3 Zrotation Yrotation Xrotation
							JOINT RightHand
							{
								OFFSET -2.93896 -0.00000 -0.00000
								CHANNELS 3 Zrotation Yrotation Xrotation
								JOINT RightFingerBase
								{
									OFFSET 0 0 0
									CHANNELS 3 Zrotation Yrotation Xrotation
									JOINT RightHandIndex1
									{
										OFFSET -0.40509 -0.00000 -0.00000
										CHANNELS 3 Zrotation Yrotation Xrotation
										End Site
										{
											OFFSET -0.32660 -0.00000 -0.00000
										}
									}
								}
								JOINT RThumb
								{
									OFFSET 0 0 0
									CHANNELS 3 Zrotation Yrotation Xrotation
									End Site
									{
										OFFSET -0.33158 -0.00000 0.33158
									}
								}
							}
						}
					}
				}
			}
		}
	}
}
MOTION
Frames: 6
Frame Time: .0083333
0.5036 15.7581 -4.9103 0 0 0 0 0 0 -21 0 0 0 0 0 0 0 0 0 0 0 0 0 0 21 0 0 0 0 0 0 0 0 0 0 0 0 0 0 0 0 0 0 0 0 0 0 -16 0 0 21 0 0 11 0 0 0 -8 0 0 0 0 0 0 0 0 0 0 0 0 0 0 0 0 0 0 0 0 8 0 0 0 0 0 0 0 0 0 0 0 0 0 0 0 0 0
0.5036 15.7581 -4.9103 -0.1861 -5.3433 10.2707 0.0000 0.0000 0.0000 -20.5927 -14.5782 -8.6960 1.2758 7.1584 20.1854 0.7596 7.1930 -20.6068 0.0354 1.2139 3.3375 0.0000 0.0000 0.0000 21.2235 11.8242 -11.0607 -1.7764 -8.3839 23.8863 -0.8862 -9.1908 -23.3699 -0.0708 -1.7167 4.7232 0.9542 -0.7336 -8.3377 0.0556 -1.0457 -8.1409 -0.5263 -0.5800 -3.8001 7.0765 1.4791 -14.3089 -3.7198 1.3017 41.7237 -2.7964 1.1011 18.0515 0.0000 -0.0000 0.0000 -87.0056 14.8459 15.9135 16.6093 -26.3399 -3.9124 -0.0000 -0.0000 19.8622 4.3093 14.1783 1.0574 -7.1250 0.0000 -0.0000 -20.8934 43.1677 0.9913 0.0000 -0.0000 0.0000 85.3269 -9.5430 18.1024 -13.3722 21.8302 -2.5901 0.0000 0.0000 17.4677 -9.0493 -7.3627 1.1692 7.1250 -0.0000 -0.0000 14.9877 -37.0502 3.0144
0.5043 15.7586 -4.9134 -0.2091 -5.3856 10.2917 0.0000 0.0000 0.0000 -20.5663 -14.6158 -8.7143 1.2771 7.1619 20.1958 0.7573 7.2540 -20.6323 0.0355 1.2168 3.3455 0.0000 0.0000 0.0000 21.2390 11.8389 -11.0881 -1.7736 -8.3777 23.8674 -0.8843 -9.1729 -23.3395 -0.0708 -1.7171 4.7245 0.9720 -0.7213 -8.3315 0.0540 -1.0304 -8.1244 -0.5373 -0.5731 -3.7861 6.9827 1.4024 -14.4090 -3.6512 1.1728 41.6742 -2.7701 1.0410 18.0352 -0.0000 -0.0000 0.0000 -86.9698 14.8268 15.9095 16.5960 -26.3221 -3.9065 -0.0000 -0.0000 19.8753 4.3068 14.1699 1.0562 -7.1250 0.0000 -0.0000 -20.8926 43.1595 0.9957 -0.0000 -0.0000 0.0000 85.3329 -9.5403 18.0889 -13.3698 21.8266 -2.5892 0.0000 0.0000 17.4812 -9.1161 -7.3647 1.1783 7.1250 -0.0000 -0.0000 14.9331 -37.0564 3.0005
0.5052 15.7598 -4.9159 -0.2066 -5.4183 10.3142 0.0000 0.0000 0.0000 -20.5664 -14.6250 -8.7533 1.2786 7.1660 20.2082 0.7554 7.2758 -20.6305 0.0364 1.2317 3.3867 0.0000 0.0000 0.0000 21.2243 11.8491 -11.1177 -1.7717 -8.3734 23.8539 -0.8813 -9.1576 -23.3010 -0.0692 -1.6967 4.6681 0.9629 -0.7195 -8.3275 0.0486 -1.0277 -8.1063 -0.5378 -0.5713 -3.7690 6.9717 1.3860 -14.4508 -3.6348 1.1391 41.6158 -2.7648 1.0260 18.0083 -0.0000 -0.0000 0.0000 -86.9509 14.8271 15.9049 16.6125 -26.3440 -3.9138 -0.0000 -0.0000 19.8797 4.2909 14.2395 1.0573 -7.1250 0.0000 -0.0000 -20.9308 43.2229 0.9633 -0.0000 -0.0000 0.0000 85.3421 -9.5261 18.0638 -13.3700 21.8270 -2.5892 0.0000 0.0000 17.5027 -9.1340 -7.3374 1.1763 7.1250 -0.0000 -0.0000 14.9125 -37.0309 3.0057
0.5061 15.7597 -4.9191 -0.2253 -5.4542 10.3215 0.0000 0.0000 0.0000 -20.5452 -14.6146 -8.7800 1.2798 7.1692 20.2176 0.7546 7.2973 -20.6403 0.0364 1.2309 3.3843 0.0000 0.0000 0.0000 21.2341 11.8872 -11.1234 -1.7699 -8.3694 23.8419 -0.8812 -9.1437 -23.2886 -0.0703 -1.7102 4.7055 0.9747 -0.7126 -8.3015 0.0500 -1.0190 -8.0884 -0.5423 -0.5674 -3.7644 6.9788 1.3986 -14.4041 -3.6312 1.1590 41.5643 -2.7583 1.0345 17.9670 -0.0000 -0.0000 0.0000 -86.9245 14.8245 15.9210 16.6088 -26.3392 -3.9122 -0.0000 -0.0000 19.8878 4.2695 14.2202 1.0506 -7.1250 0.0000 -0.0000 -20.9425 43.2026 0.9749 -0.0000 -0.0000 0.0000 85.3362 -9.5317 18.0665 -13.3689 21.8253 -2.5888 0.0000 0.0000 17.4962 -9.1210 -7.3355 1.1743 7.1250 -0.0000 -0.0000 14.9228 -37.0282 3.0089
0.5072 15.7602 -4.9222 -0.2334 -5.4952 10.3357 0.0000 0.0000 0.0000 -20.5359 -14.6160 -8.8075 1.2804 7.1709 20.2226 0.7529 7.3266 -20.6465 0.0369 1.2394 3.4077 0.0000 0.0000 0.0000 21.2291 11.9167 -11.1435 -1.7688 -8.3669 23.8343 -0.8814 -9.1191 -23.2691 -0.0709 -1.7175 4.7256 0.9763 -0.7055 -8.2836 0.0474 -1.0096 -8.0697 -0.5454 -0.5627 -3.7544 6.9709 1.3907 -14.4150 -3.6206 1.1431 41.5207 -2.7534 1.0269 17.9425 0.0000 -0.0000 0.0000 -86.9003 14.8184 15.9258 16.6091 -26.3396 -3.9123 -0.0000 -0.0000 19.9004 4.2602 14.2163 1.0481 -7.1250 0.0000 -0.0000 -20.9491 43.1979 0.9778 0.0000 -0.0000 0.0000 85.3397 -9.5262 18.0491 -13.3650 21.8197 -2.5874 0.0000 0.0000 17.5113 -9.1432 -7.3122 1.1735 7.1250 -0.0000 -0.0000 14.8995 -37.0068 3.0120
